PathFileType  4	(X/Y/Z) C:\Users\antoi\Documents\MyRepositories\mobilecap\ResultsAnalysis
DataRate	CameraRate	NumFrames	NumMarkers	Units	OrigDataRate	OrigDataStartFrame	OrigNumFrames
100.0	100.0	4	55	mm	100.0	353	704
Frame#	Time	r_knee			r_shank_antsup			r_ankle			r_calc			r_5meta			r_toe			L_knee			L_shank_antsup			L_ankle			L_calc			L_5meta			L_toe			r_mknee			r_mankle			L_mknee			L_mankle			r_sh2			r_sh3			r_sh4			L_sh2			L_sh3			r_thigh1			r_thigh2			r_thigh3			r_thigh4			r_thigh5			L_thigh1			L_thigh2			L_thigh3			L_thigh4			r.ASIS			r.PSIS			L.ASIS			L.PSIS			C7			R_Shoulder			L_Shoulder			R_Sternum			L_Sternum			R_humerus			R_elbow_med			R_elbow_lat			R_forearm			R_wrist_radius			R_wrist_ulna			L_humerus			L_elbow_med			L_elbow_lat			L_forearm			L_wrist_radius			L_wrist_ulna			R_HJC			L_HJC			R_HJC_reg			L_HJC_reg			
		X1	Y1	Z1	X2	Y2	Z2	X3	Y3	Z3	X4	Y4	Z4	X5	Y5	Z5	X6	Y6	Z6	X7	Y7	Z7	X8	Y8	Z8	X9	Y9	Z9	X10	Y10	Z10	X11	Y11	Z11	X12	Y12	Z12	X13	Y13	Z13	X14	Y14	Z14	X15	Y15	Z15	X16	Y16	Z16	X17	Y17	Z17	X18	Y18	Z18	X19	Y19	Z19	X20	Y20	Z20	X21	Y21	Z21	X22	Y22	Z22	X23	Y23	Z23	X24	Y24	Z24	X25	Y25	Z25	X26	Y26	Z26	X27	Y27	Z27	X28	Y28	Z28	X29	Y29	Z29	X30	Y30	Z30	X31	Y31	Z31	X32	Y32	Z32	X33	Y33	Z33	X34	Y34	Z34	X35	Y35	Z35	X36	Y36	Z36	X37	Y37	Z37	X38	Y38	Z38	X39	Y39	Z39	X40	Y40	Z40	X41	Y41	Z41	X42	Y42	Z42	X43	Y43	Z43	X44	Y44	Z44	X45	Y45	Z45	X46	Y46	Z46	X47	Y47	Z47	X48	Y48	Z48	X49	Y49	Z49	X50	Y50	Z50	X51	Y51	Z51	X52	Y52	Z52	X53	Y53	Z53	X54	Y54	Z54	X55	Y55	Z55	

353	3.52000000	-210.15723	500.80227	-444.13422	-179.34223	457.68145	-449.36118	-261.78542	96.46177	-470.02106	-317.61820	59.19847	-523.03793	-142.54024	40.84449	-425.93967	-95.98935	60.46759	-478.04345	-205.90894	497.43756	-785.89034	-190.76092	414.85190	-797.71042	-262.17643	98.26128	-752.30758	-322.63737	57.65764	-699.18674	-145.59616	41.38154	-781.83414	-101.00837	58.99545	-728.91629	-219.56557	488.85502	-568.02914	-227.45971	108.70250	-547.42075	-206.90902	485.98575	-660.29427	-232.11002	110.95958	-672.29324	-187.80805	342.77237	-460.15335	-248.08672	459.31108	-414.06033	-256.67298	343.75192	-410.07804	-277.17614	432.12874	-809.43804	-288.16382	309.78113	-804.14203	-75.93920	783.14253	-510.32885	-85.52059	672.48876	-497.88740	-113.39262	660.52741	-435.57914	-141.19410	800.82079	-419.73507	-157.30771	687.47425	-409.67881	-117.38426	820.73475	-791.95853	-132.18583	676.90052	-801.25753	-230.38708	827.23217	-789.54528	-243.87231	687.86042	-783.70820	-79.79647	969.26064	-487.17851	-268.59366	1000.50402	-565.22586	-77.12060	956.39949	-725.66063	-269.10715	999.84021	-663.30218	-256.64489	1457.09903	-621.24099	-194.87677	1431.44109	-455.91980	-207.30973	1423.48280	-780.69060	-129.34491	1382.50648	-601.56921	-129.86867	1380.93463	-639.43064	-183.10641	1196.55383	-364.41159	-226.26075	1103.31699	-402.96944	-210.59917	1108.57132	-344.64389	-157.12190	984.06205	-299.05486	-115.09771	885.17026	-290.70879	-157.28043	882.27450	-276.76648	-209.00918	1196.45624	-873.52629	-214.61496	1090.85245	-819.19485	-230.64619	1096.61028	-876.82499	-185.01711	978.67160	-941.52265	-135.86287	882.17436	-964.97971	-176.43093	870.93381	-958.42906	-153.22084	886.41586	-521.37088	-163.44904	887.70591	-711.76336	-147.45112	891.40982	-519.45343	-148.27637	890.34286	-677.08444	
354	3.53000000	-210.17893	500.78215	-444.17321	-179.30150	457.73280	-449.33362	-261.79513	96.45967	-470.00925	-317.61795	59.19743	-523.03924	-142.57232	40.83185	-425.92098	-96.00506	60.43752	-478.04818	-205.90236	497.43388	-785.90988	-190.76579	414.83627	-797.72091	-262.20014	98.23892	-752.29522	-322.63155	57.63606	-699.17864	-145.60245	41.36737	-781.83976	-101.00162	58.99270	-728.93208	-219.56940	488.85504	-568.03524	-227.48701	108.71658	-547.44571	-206.91062	486.00175	-660.30802	-232.12076	110.96026	-672.28970	-187.80015	342.77803	-460.19060	-248.09775	459.24238	-414.06524	-256.51026	343.55930	-410.39699	-277.17311	432.11052	-809.45055	-288.14865	309.77067	-804.15377	-75.95275	783.12850	-510.34359	-85.53310	672.46645	-497.88989	-113.38798	660.50737	-435.58495	-141.21744	800.79472	-419.77528	-157.36605	687.48787	-409.71475	-117.39158	820.72899	-791.95230	-132.20413	676.89106	-801.28092	-230.37285	827.23207	-789.59169	-243.85539	687.84190	-783.69195	-79.85010	969.24136	-487.25434	-268.58116	1000.46929	-565.20088	-77.11871	956.40883	-725.66312	-269.15898	999.82207	-663.30940	-256.66593	1457.07534	-621.24274	-194.88377	1431.40671	-455.96427	-207.33678	1423.46061	-780.71553	-129.40884	1382.51247	-601.64683	-129.89520	1380.92076	-639.43324	-183.12739	1196.56138	-364.42109	-226.21134	1103.33202	-402.97817	-210.62232	1108.60074	-344.64871	-157.19366	984.08063	-299.08705	-115.11372	885.14436	-290.79190	-157.32328	882.27027	-276.79308	-209.00050	1196.41975	-873.51757	-214.60992	1090.84498	-819.18336	-230.62334	1096.54702	-876.78177	-185.00515	978.60000	-941.48095	-135.86909	882.11480	-964.88828	-176.44192	870.88046	-958.37093	-153.22639	886.38962	-521.40123	-163.46746	887.70618	-711.79284	-147.41035	891.40807	-519.48440	-148.33843	890.36847	-677.06605	
355	3.54000000	-210.17288	500.78007	-444.18865	-179.28141	457.77053	-449.32600	-261.78930	96.45613	-470.01147	-317.61190	59.19275	-523.04420	-142.59788	40.82746	-425.92332	-96.01607	60.42761	-478.04436	-205.90020	497.43255	-785.91890	-190.76610	414.82907	-797.72814	-262.20790	98.22396	-752.28363	-322.62378	57.62778	-699.16404	-145.59573	41.36127	-781.84342	-101.00315	58.97617	-728.91515	-219.57262	488.85982	-568.04114	-227.50201	108.73257	-547.44187	-206.91366	485.99549	-660.29637	-232.12777	110.96186	-672.29013	-187.79227	342.78901	-460.22497	-248.12781	459.16298	-414.06555	-256.39301	343.33170	-410.76266	-277.16420	432.10727	-809.45820	-288.14474	309.71914	-804.09029	-75.97951	783.14162	-510.39359	-85.54785	672.45606	-497.88423	-113.41856	660.50215	-435.64707	-141.22121	800.83718	-419.75615	-157.37245	687.52254	-409.72657	-117.37869	820.72988	-791.94979	-132.18906	676.86919	-801.26859	-230.35306	827.24667	-789.67752	-243.85740	687.85319	-783.69474	-79.87393	969.23431	-487.28688	-268.57293	1000.45598	-565.18553	-77.11358	956.41528	-725.66601	-269.20545	999.80115	-663.30855	-256.68582	1457.06999	-621.24547	-194.90514	1431.42521	-455.97468	-207.35762	1423.44531	-780.72882	-129.43141	1382.50605	-601.64743	-129.92114	1380.90878	-639.44374	-183.15328	1196.57364	-364.40340	-226.25419	1103.39261	-402.99829	-210.67578	1108.66768	-344.69186	-157.27928	984.07689	-299.12291	-115.15002	885.11021	-290.83781	-157.35189	882.26666	-276.79793	-208.97876	1196.38903	-873.46999	-214.60728	1090.84276	-819.17797	-230.59621	1096.47564	-876.69350	-184.98568	978.56004	-941.47963	-135.89121	882.03962	-964.74090	-176.36003	870.80934	-958.23782	-153.22575	886.37893	-521.41158	-163.47788	887.70318	-711.80254	-147.37585	891.42806	-519.46821	-148.39158	890.37655	-677.02949	
356	3.55000000	-210.14081	500.80438	-444.17734	-179.29029	457.76935	-449.33323	-261.78016	96.45819	-470.02361	-317.61305	59.19093	-523.04414	-142.59927	40.83436	-425.94040	-95.99635	60.44934	-478.03514	-205.89957	497.43427	-785.91691	-190.75746	414.83925	-797.72668	-262.19775	98.22860	-752.28066	-322.62580	57.64365	-699.16645	-145.59061	41.37695	-781.84139	-101.00307	58.96613	-728.89286	-219.56907	488.86231	-568.04151	-227.48713	108.72231	-547.43103	-206.91106	485.94215	-660.23943	-232.12245	110.96261	-672.29378	-187.80328	342.78777	-460.22782	-248.13735	459.21326	-414.06957	-256.63724	343.57747	-410.55848	-277.16014	432.11958	-809.45562	-288.14664	309.72161	-804.10199	-76.01071	783.18010	-510.45292	-85.54703	672.45868	-497.87761	-113.40955	660.57441	-435.67508	-141.20014	800.89858	-419.73539	-157.38052	687.56142	-409.77225	-117.37523	820.72621	-791.95729	-132.15334	676.84852	-801.23247	-230.34832	827.24731	-789.70165	-243.83031	687.91887	-783.79819	-79.88401	969.25250	-487.29419	-268.60029	1000.46923	-565.23551	-77.11019	956.41214	-725.66635	-269.20172	999.82375	-663.30596	-256.71595	1457.08580	-621.28935	-194.94344	1431.46577	-455.98750	-207.37586	1423.43436	-780.74260	-129.43883	1382.49693	-601.63762	-129.95847	1380.89622	-639.48628	-183.18287	1196.58580	-364.41043	-226.39915	1103.41805	-403.01209	-210.71805	1108.70463	-344.73137	-157.33612	984.06967	-299.15036	-115.18763	885.09070	-290.87600	-157.35718	882.30233	-276.80596	-208.96796	1196.36821	-873.46237	-214.60177	1090.83343	-819.17340	-230.57161	1096.43705	-876.64074	-184.95961	978.52349	-941.44785	-135.89429	881.98818	-964.64049	-176.21762	870.69562	-958.02200	-153.24611	886.39633	-521.41742	-163.48049	887.70899	-711.80941	-147.40172	891.42277	-519.50209	-148.36791	890.38575	-677.06003	
